Coordinates
version=1
nRows=12
nColumns=34
inDegrees=yes

Units are S.I. units (second, meters, Newtons, ...)
If the header above contains a line with 'inDegrees', this indicates whether rotational values are in degrees (yes) or radians (no).

endheader
time	pelvis_tilt	pelvis_list	pelvis_rotation	pelvis_tx	pelvis_ty	pelvis_tz	hip_flexion_r	hip_adduction_r	hip_rotation_r	knee_angle_r	ankle_angle_r	subtalar_angle_r	mtp_angle_r	hip_flexion_l	hip_adduction_l	hip_rotation_l	knee_angle_l	ankle_angle_l	subtalar_angle_l	mtp_angle_l	lumbar_extension	lumbar_bending	lumbar_rotation	arm_flex_r	arm_add_r	arm_rot_r	elbow_flex_r	pro_sup_r	arm_flex_l	arm_add_l	arm_rot_l	elbow_flex_l	pro_sup_l
      0.00000000	     -4.41429285	      3.41702293	    -57.34819419	      0.05719976	      1.55435727	      0.05787418	     -2.37489557	      2.29910383	      1.85499450	     57.27377556	      7.61713660	     -8.47772557	      0.00000000	      9.46281490	      9.08883620	      0.03002952	     17.95568993	      8.72561967	     -7.79004596	      0.00000000	     -7.78896723	      3.24694457	      8.40796530	     15.75831175	    -12.18883510	     22.05821624	     85.29171942	    119.74817918	      2.49888811	    -21.57004482	     18.63784949	     86.71507000	    114.70856295
      0.01666670	     -4.98772404	      3.35132185	    -56.94920527	      0.05498113	      1.56153925	      0.05094858	     -7.00568988	      4.15671689	      0.56732720	     48.97362091	      9.77677429	     -4.10258510	      0.00000000	      9.12450143	      8.54118277	      0.40073102	     17.17379182	      7.87501296	     -6.04644051	      0.00000000	     -7.09457812	      3.82552948	     11.71948697	     15.68399621	    -13.45495487	     27.94914958	     86.07961479	    119.74817918	     -1.78869764	    -20.35041958	     20.29345156	     85.08121091	    116.18696352
      0.03333330	     -5.04499699	      3.25124266	    -58.30699319	      0.04784691	      1.56300841	      0.06142833	     -7.11785073	      4.51979184	     -0.42408190	     48.40079934	     11.98754438	     -3.68246660	      0.00000000	      9.26150228	      8.22214086	      0.57036227	     18.38472001	      8.68811382	     -6.26755446	      0.00000000	     -7.64451573	      2.74798964	     11.15774150	     16.46007218	    -13.20478138	     30.72119540	     85.13347101	    119.74817918	     -0.80549858	    -21.28114335	     22.33410295	     84.32786166	    116.87769442
      0.05000000	     -4.39760911	      2.95399615	    -59.63603458	      0.04818714	      1.55695601	      0.07693082	     -5.44896137	      2.71835954	     -2.48794151	     51.93518277	     13.52901356	     -1.52523559	      0.00000000	      9.91023847	      8.60188520	      0.71978692	     21.82565231	     11.33006247	     -6.80099493	      0.00000000	     -7.81826576	      1.29882667	      9.71684608	     15.56961468	    -13.02166412	     31.44730466	     82.32292935	    119.74817918	      0.82578720	    -20.49442794	     23.30552635	     83.50456284	    118.65335324
      0.06666670	     -4.22482617	      2.74761987	    -60.78216580	      0.04911401	      1.54771187	      0.09302438	     -3.50325517	      1.31122551	     -2.88411088	     56.27584356	     13.93343742	     -1.59360080	      0.00000000	     10.94179271	      8.76207357	      1.05645617	     26.08458301	     13.83911096	     -7.95177994	      0.00000000	     -8.48278167	      0.55621346	      8.70785571	     15.14115681	    -12.69953601	     32.78873693	     79.67555159	    119.74817918	      3.26683387	    -19.41060386	     24.45398611	     83.77288693	    119.74817918
      0.08333330	     -4.33710862	      3.19742249	    -61.64333456	      0.05201328	      1.53648993	      0.10903223	      0.10376121	     -0.11492148	     -2.59117920	     61.47589635	     14.11254114	     -2.12864779	      0.00000000	     12.23587531	      9.06919230	      1.16649072	     30.03931212	     16.43986962	     -8.61058613	      0.00000000	     -8.82055830	     -0.21448682	      7.49874719	     14.41819447	    -12.43063439	     34.09007589	     76.92348443	    119.74817918	      5.63127780	    -18.08415205	     25.68844042	     84.22101373	    119.74817918
      0.10000000	     -4.87331851	      3.86097077	    -62.16712820	      0.05439696	      1.52666543	      0.12563640	      4.63357259	     -1.35109865	     -1.34909910	     66.11535449	     14.14791166	     -2.99595623	      0.00000000	     12.82867127	      8.97236793	      0.91077229	     32.77948324	     19.01065003	     -8.21016532	      0.00000000	     -9.27138369	     -0.27535581	      5.92162026	     12.43684222	    -12.55976393	     33.79418256	     75.35488490	    119.74817918	      6.98758266	    -17.21556063	     27.00546328	     84.71583273	    119.74817918
      0.11666670	     -5.25715407	      4.39295366	    -62.47846859	      0.05558866	      1.52162213	      0.14071733	      8.16789457	     -2.33216437	     -0.40219677	     69.07581666	     14.19121712	     -4.00135172	      0.00000000	     12.23078877	      8.86543292	      0.77208997	     33.58768939	     20.65337030	     -7.55116709	      0.00000000	     -9.92287484	     -0.64115024	      3.39740985	     10.28109935	    -12.17687774	     32.45216935	     73.76270811	    119.74817918	      7.98885616	    -16.52447308	     27.95806479	     84.44763358	    119.74817918
      0.13333330	     -5.76933189	      4.77586735	    -62.74400854	      0.05552276	      1.52223186	      0.15307970	     10.72816384	     -3.04686353	      0.28621046	     70.43013073	     14.14569107	     -4.44004778	      0.00000000	     11.00619534	      8.44807267	      0.64427285	     32.70179703	     21.43841880	     -7.05722497	      0.00000000	    -10.43230877	     -0.67198790	      1.37907978	      8.75337357	    -11.67273800	     31.51590916	     71.85859264	    119.74817918	      9.51809566	    -15.60859064	     28.84269877	     85.38164025	    119.74817918
      0.15000000	     -6.18278937	      5.27106661	    -63.07492493	      0.05537328	      1.52697222	      0.16787265	     14.00688945	     -3.29231022	      0.76693244	     69.97705837	     14.12873341	     -5.52288459	      0.00000000	      9.22886991	      8.04502480	      0.48988276	     30.28551797	     21.34525382	     -6.17158916	      0.00000000	    -10.80063743	     -0.69870807	     -0.40251281	      6.90637908	    -11.55477312	     30.45622934	     70.19541162	    119.74817918	     11.49096627	    -15.33458222	     29.20672628	     87.95703111	    119.74817918
      0.16666670	     -6.43341241	      5.61772473	    -63.61995817	      0.05655371	      1.53106679	      0.18767785	     17.58241487	     -3.19517062	      1.08876314	     68.30619570	     14.37813774	     -6.96218538	      0.00000000	      6.90465866	      7.71226285	      0.31406956	     27.45387725	     21.01962086	     -5.16592742	      0.00000000	    -11.03515494	     -1.06542901	     -2.40456777	      5.25649260	    -11.58631516	     29.21513048	     68.80413097	    119.74788591	     13.57352958	    -15.34602707	     28.93891749	     90.66183124	    119.74817918
      0.18333330	     -6.76170918	      5.71697909	    -64.41740474	      0.05886887	      1.53186412	      0.21440891	     21.14619764	     -3.07936756	      1.30879297	     66.73905556	     14.52965079	     -8.19179023	      0.00000000	      4.30593716	      7.24277480	      0.20727362	     25.13552697	     20.75226389	     -4.41544157	      0.00000000	    -11.21195997	     -1.23267164	     -4.81399698	      3.10508064	    -11.94400408	     28.33069826	     68.79885828	    119.74660077	     15.59847661	    -15.68894983	     27.83532672	     92.94844636	    119.74817918
